# xmcd
# 
# Track frame offsets:
#     150
#     20175
#     39450
#     63712
# 
# Disc length: 1123
# 
# Revision: 0
# Processed by: cddbd v1.5.2PL0 Copyright (c) Steve Scherf et al.
# Submitted via: fre:ac v1.0.17
# 
DISCID=35046104
DTITLE=Plastix - Airscape
DYEAR=1999
DGENRE=Trip-Hop
TTITLE0=Airdraft
TTITLE1=Cruel Moon
TTITLE2=Velocity
TTITLE3=Purify
EXTD=
EXTT0=
EXTT1=
EXTT2=
EXTT3=
PLAYORDER=
